<svg width="40" height="40" viewBox="0 0 40 40" fill="none" xmlns="http://www.w3.org/2000/svg">
<path d="M29.1472 8.89667L29.1858 9.19364L28.7408 9.28577L28.6816 9.91837H29.2146L29.9237 9.85009L30.2898 9.41492L29.9007 9.26356L29.6876 9.01842L29.3676 8.50017L29.2146 7.76721L28.6133 7.88978L28.4446 8.14809V8.43929L28.7342 8.63755L29.1472 8.89667Z" fill="#FFBA08"/>
<path d="M28.6347 9.14015L28.6668 8.74365L28.3139 8.59146L27.8203 8.70581L27.4542 9.29316V9.67403H27.8812L28.6347 9.14015Z" fill="#FFBA08"/>
<path d="M18.4752 10.8241L18.3667 11.1038H17.841V11.3752H17.966C17.966 11.3752 17.9734 11.4328 17.9841 11.5085L18.3066 11.4813L18.5082 11.3563L18.5608 11.1038L18.8216 11.0815L18.9244 10.8693L18.685 10.8199L18.4752 10.8241Z" fill="#FFBA08"/>
<path d="M17.1204 11.3168L17.0999 11.5825L17.4807 11.5504L17.5202 11.2839L17.2915 11.1038L17.1204 11.3168Z" fill="#FFBA08"/>
<path d="M39.9951 19.7931C39.9893 19.2082 39.9597 18.6275 39.9046 18.0557C39.7195 16.1497 39.2638 14.3227 38.581 12.61C38.53 12.4825 38.4831 12.3533 38.4288 12.2275C37.519 10.0779 36.2414 8.12093 34.6776 6.43208C34.5748 6.32185 34.4703 6.21327 34.3659 6.10632C34.0705 5.79949 33.767 5.50005 33.4527 5.21296C29.8974 1.97594 25.1755 0 19.9996 0C14.7801 0 10.0245 2.01131 6.45923 5.29769C5.62838 6.06355 4.86499 6.89933 4.17234 7.79434C1.55969 11.1737 0 15.4069 0 19.9996C0 31.0285 8.97234 40 20.0004 40C27.7577 40 34.4925 35.5578 37.8077 29.0854C38.5168 27.7018 39.0688 26.2268 39.4406 24.6811C39.5352 24.2887 39.6167 23.8947 39.6874 23.4957C39.8889 22.3597 39.9992 21.1916 39.9992 19.9996C40 19.9305 39.9959 19.8622 39.9951 19.7931ZM36.2307 11.7997L36.3467 11.6697C36.4989 11.965 36.6412 12.2653 36.777 12.5697L36.5878 12.5623L36.2307 12.6116V11.7997ZM33.3409 8.31013L33.3442 7.41676C33.6584 7.74992 33.9611 8.09296 34.2507 8.44833L33.8904 8.98468L32.631 8.97316L32.552 8.71075L33.3409 8.31013ZM37.505 14.9215H36.0415L35.1498 14.2577L34.2112 14.349V14.9215H33.9142L33.5934 14.6929L31.9679 14.2807V13.2278L29.9081 13.3882L29.2697 13.7312H28.452L28.0514 13.6909L27.0585 14.2421V15.2794L25.0291 16.7437L25.1977 17.3688H25.609L25.5013 17.9644L25.2117 18.0705L25.1961 19.6269L26.9499 21.6243H27.7133L27.7594 21.5025H29.1315L29.5272 21.1365H30.3054L30.7323 21.5642L31.8922 21.6843L31.7384 23.2267L33.0258 25.4996L32.348 26.7953L32.394 27.4057L32.9279 27.9379V29.4054L33.6288 30.3482V31.5673H34.2342C30.8648 35.7043 25.7366 38.3539 19.9988 38.3539C9.87887 38.3548 1.64524 30.1203 1.64524 19.9996C1.64524 17.4519 2.16843 15.0235 3.11033 12.8165V12.2439L3.76679 11.4468C3.99465 11.0166 4.23897 10.597 4.49974 10.1882L4.52936 10.5213L3.76761 11.4468C3.53152 11.8926 3.31105 12.3484 3.11116 12.8165V13.8612L3.87373 14.2281V15.68L4.60504 16.9279L5.19979 17.0192L5.2763 16.5915L4.5746 15.5089L4.43722 14.4568H4.84853L5.02211 15.5393L6.0364 17.0192L5.77481 17.4972L6.41974 18.4835L8.02139 18.88V18.6209L8.66221 18.7122L8.60134 19.1696L9.10478 19.2617L9.88216 19.4739L10.9804 20.7251L12.3829 20.8313L12.5203 21.9755L11.5603 22.6468L11.5151 23.6685L11.3777 24.2937L12.7663 26.0319L12.8724 26.6275C12.8724 26.6275 13.3758 26.764 13.4375 26.764C13.4984 26.764 14.5662 27.5726 14.5662 27.5726V30.7142L14.947 30.8212L14.6879 32.2706L15.3287 33.1253L15.2103 34.5616L16.0568 36.0498L17.1434 36.9991L18.2359 37.0188L18.3428 36.6676L17.5399 35.9914L17.586 35.6557L17.73 35.2444L17.7604 34.8249L17.2175 34.8084L16.9435 34.4646L17.3943 34.0311L17.4552 33.7037L16.9518 33.5597L16.9814 33.2553L17.6987 33.1467L18.7895 32.6227L19.1556 31.9515L20.2998 30.4872L20.0399 29.3421L20.3912 28.7325L21.4433 28.7646L22.1516 28.2036L22.3803 25.994L23.1659 24.9962L23.3032 24.3554L22.5867 24.1259L22.1137 23.3501L20.4973 23.3337L19.2156 22.845L19.1548 21.9311L18.727 21.1833L17.5679 21.1661L16.8983 20.1148L16.3035 19.8244L16.2731 20.1452L15.1905 20.2094L14.794 19.6574L13.6646 19.4279L12.7342 20.503L11.2699 20.2546L11.1638 18.6044L10.0952 18.4218L10.5238 17.6123L10.4012 17.1476L8.99702 18.0862L8.11352 17.9784L7.79846 17.2882L7.99095 16.5767L8.47794 15.6792L9.59918 15.1116L11.7643 15.1107L11.7586 15.7713L12.5368 16.1333L12.4751 15.0046L13.0361 14.4403L14.168 13.6967L14.2453 13.1735L15.374 11.9988L16.5742 11.3341L16.4681 11.2469L17.2808 10.4819L17.5786 10.5608L17.7152 10.7319L18.0237 10.3897L18.0993 10.356L17.7612 10.3083L17.4182 10.1939V9.86488L17.6 9.71599H18.0006L18.1841 9.79661L18.3428 10.1174L18.537 10.0878V10.0598L18.5929 10.0788L19.1556 9.99239L19.2354 9.71764L19.5562 9.79825V10.096L19.2584 10.3009H19.2592L19.3028 10.6275L20.3221 10.9417C20.3221 10.9417 20.3229 10.9458 20.3245 10.954L20.559 10.9343L20.5746 10.4925L19.7668 10.1248L19.7207 9.9126L20.3912 9.68391L20.4208 9.04226L19.7199 8.61532L19.6738 7.53357L18.713 8.00576H18.3626L18.4547 7.18231L17.1467 6.87383L16.6054 7.28267V8.52977L15.6323 8.83825L15.2424 9.651L14.8195 9.71928V8.67949L13.9048 8.5528L13.4474 8.25501L13.2631 7.58129L14.8993 6.62375L15.6997 6.38026L15.7804 6.91825L16.2262 6.89522L16.2608 6.62458L16.7272 6.55794L16.7354 6.46334L16.5347 6.38026L16.4886 6.09398L17.062 6.04545L17.4083 5.68514L17.4272 5.65882L17.4314 5.66046L17.5367 5.55188L18.7418 5.39969L19.2749 5.85213L17.8772 6.59661L19.6557 7.01614L19.8861 6.42139H20.6634L20.9382 5.90314L20.3887 5.76576V5.11013L18.6653 4.34674L17.4758 4.48411L16.8045 4.83537L16.8506 5.68925L16.1489 5.58231L16.0411 5.11013L16.7132 4.49974L15.4933 4.43887L15.1428 4.54499L14.9906 4.9563L15.448 5.03363L15.3567 5.491L14.5793 5.53707L14.4576 5.84144L13.3298 5.8727C13.3298 5.8727 13.2985 5.2327 13.2533 5.2327C13.208 5.2327 14.1376 5.21707 14.1376 5.21707L14.8097 4.56062L14.4428 4.37717L13.955 4.851L13.1455 4.80494L12.6577 4.13368H11.6204L10.5378 4.94231H11.5299L11.6204 5.2327L11.3629 5.47208L12.4611 5.50252L12.6289 5.89902L11.3925 5.85296L11.3324 5.54776L10.5551 5.37995L10.1429 5.15126L9.21748 5.15866C12.2472 2.95157 15.9729 1.64524 19.9996 1.64524C24.6408 1.64524 28.8814 3.38015 32.1168 6.23054L31.8988 6.62046L31.0523 6.95198L30.6953 7.33943L30.7776 7.79105L31.2144 7.85193L31.4776 8.51003L32.2312 8.20648L32.3554 9.08668H32.1283L31.5097 8.99537L30.8236 9.11054L30.1598 10.0483L29.2105 10.1972L29.0731 11.01L29.4737 11.1046L29.3577 11.6269L28.415 11.4377L27.5504 11.6269L27.367 12.1082L27.5167 13.1184L28.0243 13.3561L28.8757 13.3512L29.4507 13.2993L29.6259 12.842L30.5242 11.6747L31.1157 11.7956L31.6981 11.2691L31.8067 11.6804L33.2397 12.647L33.0645 12.8823L32.4187 12.8477L32.6671 13.1998L33.0645 13.287L33.5301 13.0929L33.5202 12.5318L33.7267 12.4282L33.5605 12.2521L32.6046 11.7191L32.3529 11.0108H33.1476L33.4017 11.2625L34.0862 11.8523L34.115 12.5656L34.8241 13.3207L35.0881 12.2859L35.5792 12.0177L35.6714 12.8642L36.1509 13.3906L37.1077 13.3742C37.2928 13.8505 37.4589 14.335 37.6045 14.8294L37.505 14.9215ZM37.8028 15.8478L37.8604 15.7804C37.8842 15.884 37.9097 15.9877 37.9327 16.093L37.8028 15.8478Z" fill="#FFBA08"/>
<path d="M3.11115 12.2439V12.8164C3.31104 12.3492 3.53151 11.8935 3.7676 11.4468L3.11115 12.2439Z" fill="#FFBA08"/>
</svg>
